HIERARCHY
ROOT Hips
{
 OFFSET 0.000000 0.000000 0.000000
 CHANNELS 6 Xposition Yposition Zposition Yrotation Xrotation Zrotation
 JOINT Chest
 {
  OFFSET 0.000000 11.395451 -0.039534
  CHANNELS 3 Yrotation Xrotation Zrotation
  JOINT Chest2
  {
   OFFSET 0.000000 9.398669 0.071813
   CHANNELS 3 Yrotation Xrotation Zrotation
   JOINT Chest3
   {
    OFFSET 0.000000 8.489801 0.000000
    CHANNELS 3 Yrotation Xrotation Zrotation
    JOINT Chest4
    {
     OFFSET 0.000000 8.489801 0.000000
     CHANNELS 3 Yrotation Xrotation Zrotation
     JOINT Neck
     {
      OFFSET 0.000000 12.404889 0.000000
      CHANNELS 3 Yrotation Xrotation Zrotation
      JOINT Head
      {
       OFFSET 0.000000 8.903270 0.092239
       CHANNELS 3 Yrotation Xrotation Zrotation
       End Site
       {
        OFFSET 0.000000 17.592497 0.007158
       }
      }
     }
     JOINT RightCollar
     {
      OFFSET -3.196775 6.966722 0.000000
      CHANNELS 3 Yrotation Xrotation Zrotation
      JOINT RightShoulder
      {
       OFFSET -15.955896 0.000000 0.000000
       CHANNELS 3 Yrotation Xrotation Zrotation
       JOINT RightElbow
       {
        OFFSET -24.792472 0.000000 0.000000
        CHANNELS 3 Yrotation Xrotation Zrotation
        JOINT RightWrist
        {
         OFFSET -20.900115 0.000000 0.025002
         CHANNELS 3 Yrotation Xrotation Zrotation
         End Site
         {
          OFFSET -16.056692 0.000000 0.000000
         }
        }
       }
      }
     }
     JOINT LeftCollar
     {
      OFFSET 3.196775 6.966722 0.000000
      CHANNELS 3 Yrotation Xrotation Zrotation
      JOINT LeftShoulder
      {
       OFFSET 15.955896 0.000000 0.000000
       CHANNELS 3 Yrotation Xrotation Zrotation
       JOINT LeftElbow
       {
        OFFSET 24.792472 0.000000 0.000000
        CHANNELS 3 Yrotation Xrotation Zrotation
        JOINT LeftWrist
        {
         OFFSET 20.900115 0.000000 0.025002
         CHANNELS 3 Yrotation Xrotation Zrotation
         End Site
         {
          OFFSET 16.056692 0.000000 0.000000
         }
        }
       }
      }
     }
    }
   }
  }
 }
 JOINT RightHip
 {
  OFFSET -9.568995 0.193718 0.019767
  CHANNELS 3 Yrotation Xrotation Zrotation
  JOINT RightKnee
  {
   OFFSET 0.000000 -56.649296 0.015402
   CHANNELS 3 Yrotation Xrotation Zrotation
   JOINT RightAnkle
   {
    OFFSET 0.000000 -41.365147 0.021264
    CHANNELS 3 Yrotation Xrotation Zrotation
    JOINT RightToe
    {
     OFFSET 0.000000 -7.465940 17.672538
     CHANNELS 3 Yrotation Xrotation Zrotation
     End Site
     {
      OFFSET 0.000000 -1.736315 7.837145
     }
    }
   }
  }
 }
 JOINT LeftHip
 {
  OFFSET 9.568995 0.193718 0.019767
  CHANNELS 3 Yrotation Xrotation Zrotation
  JOINT LeftKnee
  {
   OFFSET 0.000000 -56.649296 0.015402
   CHANNELS 3 Yrotation Xrotation Zrotation
   JOINT LeftAnkle
   {
    OFFSET 0.000000 -41.365147 0.021264
    CHANNELS 3 Yrotation Xrotation Zrotation
    JOINT LeftToe
    {
     OFFSET 0.000000 -7.465940 17.672538
     CHANNELS 3 Yrotation Xrotation Zrotation
     End Site
     {
      OFFSET 0.000000 -1.736315 7.837145
     }
    }
   }
  }
 }
}
MOTION
Frames: 17
Frame Time: 0.016667
-126.193729 106.356385 103.642006 -89.965689 -9.918668 -0.306079 -0.293748 5.778240 1.485490 -0.148901 2.567159 0.663015 -0.148901 2.567159 0.663015 -0.114444 1.925211 0.497804 2.797464 15.650554 -2.198991 6.026910 -6.943013 -5.130493 0.022663 7.438227 6.840885 9.531119 -14.057107 73.567533 1.589512 1.132204 -0.835383 -2.777385 0.552462 2.615575 -3.201169 7.185509 -8.853372 -1.627841 -14.789514 -76.517265 -2.465871 -0.072708 -0.956315 5.899566 -0.685124 -2.922053 5.183137 13.866702 2.716120 -1.538366 2.963839 -0.705141 3.721986 -8.163298 -0.432128 0.000000 0.000000 0.000000 -0.042051 13.659868 0.487710 -0.413446 6.669056 0.235917 5.363903 -10.496979 -0.709332 0.000000 -0.000000 0.000000
-126.177314 106.344831 103.687273 -89.967512 -9.804597 -0.304791 -0.315235 5.711458 1.471537 -0.158057 2.537419 0.657064 -0.158057 2.537420 0.657063 -0.121254 1.902898 0.493373 2.816302 15.646395 -2.172363 6.052546 -6.951325 -5.088041 0.014028 7.421378 6.891808 9.524177 -13.973495 73.714249 1.561414 1.148672 -0.881488 -2.755685 0.559611 2.533640 -3.143520 7.188815 -8.796824 -1.704532 -14.695993 -76.565693 -2.555385 -0.093067 -0.960954 5.826009 -0.692891 -2.910835 5.236621 13.773639 2.749365 -1.683374 2.882084 -0.872544 3.811461 -8.127446 -0.289627 0.000000 0.000000 0.000000 -0.012263 13.520921 0.478874 -0.449111 6.697520 0.156773 5.325460 -10.546064 -0.633746 -0.000000 -0.000000 0.000000
-126.160900 106.333277 103.732539 -89.969331 -9.690526 -0.303507 -0.336726 5.644670 1.457653 -0.167219 2.507678 0.651136 -0.167219 2.507678 0.651136 -0.128068 1.880583 0.488960 2.835123 15.642246 -2.145725 6.078145 -6.959624 -5.045565 0.005340 7.404587 6.942736 9.517270 -13.889717 73.860854 1.533308 1.165015 -0.927642 -2.733952 0.566747 2.451715 -3.085898 7.192096 -8.740241 -1.781289 -14.602590 -76.614285 -2.644918 -0.113372 -0.965427 5.752460 -0.700589 -2.899500 5.290088 13.680555 2.782416 -1.828158 2.799985 -1.039745 3.900980 -8.091847 -0.147049 0.000000 0.000000 0.000000 0.017501 13.381979 0.469907 -0.484776 6.725981 0.077609 5.286880 -10.595048 -0.558100 0.000000 -0.000000 0.000000
-126.145525 106.323503 103.780361 -89.962719 -9.584253 -0.303131 -0.358814 5.581699 1.446604 -0.176696 2.479630 0.646470 -0.176696 2.479630 0.646470 -0.135126 1.859538 0.485494 2.852687 15.640304 -2.121695 6.102213 -6.963731 -5.007340 -0.003390 7.389493 6.988752 9.514853 -13.812986 73.995153 1.499497 1.179485 -0.975057 -2.714819 0.574210 2.376048 -3.032330 7.195162 -8.689367 -1.864597 -14.517168 -76.657757 -2.744673 -0.123138 -0.977448 5.681063 -0.708859 -2.888102 5.344970 13.594579 2.809984 -1.970536 2.724982 -1.185071 3.979207 -8.062231 -0.018549 0.000000 0.000000 0.000000 0.037168 13.254338 0.461147 -0.515599 6.749384 0.009869 5.251578 -10.637784 -0.493167 0.000000 0.000000 0.000000
-126.131634 106.316522 103.832714 -89.942803 -9.488333 -0.303573 -0.382586 5.523722 1.439662 -0.186988 2.453794 0.643643 -0.186988 2.453794 0.643643 -0.142805 1.840151 0.483410 2.868355 15.641755 -2.101649 6.123984 -6.961394 -4.975617 -0.012182 7.376870 7.026527 9.520705 -13.746452 74.112607 1.454526 1.192271 -1.026060 -2.699995 0.582552 2.309943 -2.984094 7.197281 -8.648134 -1.961488 -14.443122 -76.692535 -2.857051 -0.118140 -0.999226 5.611550 -0.718594 -2.875809 5.406316 13.518667 2.829607 -2.115629 2.659434 -1.297481 4.042068 -8.041181 0.089289 -0.000000 0.000000 -0.000000 0.038027 13.143060 0.452168 -0.536641 6.763849 -0.040121 5.222308 -10.670251 -0.446083 0.000000 0.000000 0.000000
-126.118783 106.311321 103.887623 -89.914468 -9.400211 -0.304875 -0.406947 5.469566 1.435521 -0.197590 2.429653 0.642062 -0.197590 2.429653 0.642062 -0.150724 1.822035 0.482261 2.882777 15.645407 -2.084214 6.144246 -6.954877 -4.948155 -0.020989 7.365908 7.059382 9.531002 -13.687081 74.217855 1.403846 1.203143 -1.078309 -2.687815 0.591198 2.250079 -2.939898 7.199196 -8.612620 -2.064874 -14.377042 -76.722193 -2.979683 -0.102659 -1.028533 5.544196 -0.728879 -2.863396 5.469062 13.449872 2.843730 -2.258477 2.601232 -1.388103 4.093594 -8.025954 0.182998 0.000000 -0.000000 0.000000 0.028815 13.043081 0.443508 -0.552837 6.773265 -0.078669 5.196412 -10.696541 -0.409755 -0.000000 -0.000000 -0.000000
-126.106681 106.306648 103.941726 -89.883927 -9.320005 -0.308129 -0.429219 5.419530 1.433066 -0.207297 2.407348 0.641202 -0.207297 2.407348 0.641202 -0.157977 1.805296 0.481648 2.896649 15.649890 -2.067884 6.163836 -6.946780 -4.922495 -0.029697 7.355862 7.092361 9.538778 -13.632840 74.312491 1.358147 1.209761 -1.126011 -2.675842 0.598806 2.192777 -2.899909 7.202931 -8.576787 -2.160068 -14.316572 -76.752126 -3.115622 -0.078993 -1.066440 5.481951 -0.737650 -2.853358 5.519478 13.386462 2.854493 -2.381818 2.551182 -1.468569 4.134593 -8.014234 0.268068 0.000000 0.000000 0.000000 0.025633 12.950511 0.436931 -0.574157 6.784232 -0.113280 5.169204 -10.722677 -0.373617 0.000000 -0.000000 0.000000
-126.095130 106.302136 103.993664 -89.850754 -9.247970 -0.313802 -0.449068 5.373817 1.431894 -0.215957 2.386971 0.640882 -0.215957 2.386971 0.640882 -0.164449 1.790004 0.481436 2.910151 15.654879 -2.052010 6.182871 -6.937737 -4.897515 -0.038651 7.345944 7.127882 9.538302 -13.583133 74.395504 1.321499 1.211452 -1.165575 -2.663117 0.605255 2.137066 -2.865275 7.209625 -8.537686 -2.242084 -14.262340 -76.785335 -3.268047 -0.045746 -1.113488 5.427208 -0.742768 -2.847839 5.548012 13.327513 2.862109 -2.474976 2.511749 -1.542788 4.162472 -8.006875 0.345308 0.000000 -0.000000 0.000000 0.037415 12.863638 0.434240 -0.608504 6.799651 -0.146565 5.137675 -10.750836 -0.333560 0.000000 0.000000 0.000000
-126.084328 106.298151 104.044796 -89.815381 -9.183848 -0.321429 -0.466831 5.332225 1.432381 -0.223723 2.368431 0.641274 -0.223723 2.368431 0.641274 -0.170255 1.776091 0.481754 2.923107 15.660695 -2.037241 6.201241 -6.927122 -4.874337 -0.047504 7.336931 7.163524 9.535297 -13.538583 74.467906 1.289861 1.208981 -1.200566 -2.650583 0.610693 2.083923 -2.834842 7.218134 -8.498274 -2.315923 -14.213691 -76.818726 -3.433817 -0.004419 -1.169245 5.377562 -0.746400 -2.844758 5.564235 13.273956 2.866507 -2.548672 2.480537 -1.606935 4.179819 -8.002950 0.413886 0.000000 0.000000 0.000000 0.055198 12.784172 0.433554 -0.647975 6.816632 -0.175917 5.104833 -10.778837 -0.293690 -0.000000 -0.000000 -0.000000
-126.074582 106.294539 104.095835 -89.785303 -9.127002 -0.330734 -0.480841 5.294455 1.434584 -0.229855 2.351599 0.642383 -0.229855 2.351599 0.642383 -0.174840 1.763460 0.482605 2.935680 15.666930 -2.024016 6.219434 -6.915645 -4.853868 -0.055109 7.330440 7.197083 9.539996 -13.498962 74.534312 1.261768 1.202198 -1.235921 -2.638643 0.614191 2.032593 -2.805322 7.227048 -8.461363 -2.381888 -14.166332 -76.848522 -3.606503 0.038337 -1.233330 5.328764 -0.752935 -2.840290 5.583104 13.226834 2.869423 -2.617705 2.450999 -1.661028 4.195229 -7.997504 0.476837 -0.000000 -0.000000 0.000000 0.068223 12.713355 0.431110 -0.678837 6.833084 -0.201009 5.074995 -10.806149 -0.255751 0.000000 0.000000 0.000000
-126.066098 106.291441 104.147383 -89.763010 -9.077817 -0.341687 -0.490319 5.260639 1.439101 -0.234012 2.336535 0.644470 -0.234012 2.336535 0.644470 -0.177950 1.752157 0.484181 2.948075 15.673628 -2.013287 6.238182 -6.903144 -4.837951 -0.060505 7.327679 7.226585 9.557115 -13.464575 74.596408 1.235831 1.189293 -1.274849 -2.627340 0.614748 1.982114 -2.775437 7.236412 -8.428685 -2.440401 -14.119223 -76.872495 -3.788499 0.079277 -1.309737 5.278386 -0.765506 -2.832415 5.611287 13.187004 2.871092 -2.689961 2.420878 -1.703512 4.212181 -7.987783 0.535191 0.000000 0.000000 0.000000 0.071769 12.652214 0.424890 -0.694639 6.848335 -0.220802 5.049153 -10.832036 -0.220422 0.000000 -0.000000 0.000000
-126.058671 106.288716 104.198838 -89.746010 -9.035908 -0.354344 -0.496047 5.230643 1.445325 -0.236534 2.323179 0.647274 -0.236534 2.323179 0.647274 -0.179838 1.742137 0.486289 2.960090 15.680745 -2.004101 6.256757 -6.889780 -4.824742 -0.064641 7.327432 7.254005 9.581935 -13.435148 74.652549 1.213447 1.172106 -1.314120 -2.616638 0.613377 1.933444 -2.746461 7.246184 -8.398510 -2.491038 -14.073360 -76.892834 -3.977433 0.121498 -1.394557 5.228845 -0.780943 -2.823130 5.642112 13.153610 2.871293 -2.757571 2.392457 -1.735948 4.227211 -7.976526 0.587916 0.000000 -0.000000 0.000000 0.070569 12.599724 0.416993 -0.701829 6.863045 -0.236327 5.026327 -10.857249 -0.187028 0.000000 -0.000000 0.000000
-126.051995 106.285792 104.249112 -89.734324 -8.999483 -0.368565 -0.498700 5.203768 1.451500 -0.237700 2.311220 0.650024 -0.237700 2.311220 0.650024 -0.180710 1.733165 0.488351 2.971267 15.687749 -1.994045 6.273461 -6.876749 -4.809612 -0.069240 7.327680 7.283060 9.610534 -13.409581 74.702355 1.197306 1.155959 -1.349015 -2.606839 0.612170 1.888708 -2.718928 7.254821 -8.368461 -2.532831 -14.027503 -76.912400 -4.159690 0.167963 -1.475520 5.183167 -0.794188 -2.814638 5.670520 13.125120 2.871050 -2.811692 2.365986 -1.763021 4.238494 -7.967043 0.634964 0.000000 -0.000000 0.000000 0.068063 12.554051 0.409870 -0.706023 6.877112 -0.250362 5.007875 -10.883491 -0.155280 0.000000 0.000000 0.000000
-126.045823 106.282525 104.297862 -89.728036 -8.967833 -0.384607 -0.497969 5.179684 1.457318 -0.237367 2.300512 0.652579 -0.237367 2.300512 0.652579 -0.180459 1.725133 0.490263 2.981595 15.694520 -1.982042 6.287888 -6.864349 -4.790562 -0.075149 7.326877 7.315258 9.641266 -13.387032 74.744479 1.187837 1.143638 -1.377978 -2.598892 0.612852 1.849904 -2.692823 7.261024 -8.337224 -2.563125 -13.980540 -76.933101 -4.335869 0.225478 -1.549814 5.143559 -0.802646 -2.808124 5.693959 13.100755 2.870382 -2.845783 2.341966 -1.785379 4.243330 -7.960895 0.675514 0.000000 0.000000 0.000000 0.064680 12.514681 0.404562 -0.708862 6.889852 -0.264015 4.994864 -10.910908 -0.125564 -0.000000 -0.000000 0.000000
-126.040403 106.279058 104.345430 -89.727060 -8.941671 -0.402226 -0.494165 5.158718 1.463087 -0.235678 2.291200 0.655081 -0.235678 2.291200 0.655081 -0.179192 1.718150 0.492129 2.991086 15.701174 -1.969171 6.300446 -6.852286 -4.769597 -0.081522 7.326570 7.349091 9.675777 -13.368339 74.780270 1.184593 1.132403 -1.402579 -2.591857 0.613710 1.815032 -2.668163 7.266088 -8.306119 -2.584577 -13.933555 -76.952997 -4.505345 0.287307 -1.620374 5.107824 -0.808958 -2.802470 5.714987 13.081293 2.869304 -2.866392 2.319895 -1.802395 4.244410 -7.956511 0.710386 0.000000 0.000000 0.000000 0.059991 12.482125 0.400046 -0.708706 6.901943 -0.276180 4.986227 -10.939366 -0.097495 -0.000000 0.000000 -0.000000
-126.036169 106.275252 104.391754 -89.731164 -8.921339 -0.420525 -0.488887 5.141160 1.467978 -0.233335 2.283407 0.657180 -0.233335 2.283407 0.657180 -0.177435 1.712307 0.493692 2.999317 15.707532 -1.956249 6.310660 -6.840865 -4.748099 -0.087540 7.329382 7.383745 9.715084 -13.354914 74.813389 1.188957 1.119291 -1.422801 -2.583192 0.611685 1.780223 -2.645535 7.272360 -8.276723 -2.604173 -13.888616 -76.969190 -4.652632 0.336242 -1.683426 5.072386 -0.815934 -2.796449 5.736208 13.067544 2.868825 -2.884301 2.298497 -1.816832 4.247998 -7.952511 0.742001 0.000000 -0.000000 0.000000 0.056142 12.456086 0.395664 -0.706238 6.915330 -0.286313 4.980115 -10.970155 -0.069627 0.000000 0.000000 0.000000
-126.033321 106.271048 104.436916 -89.741525 -8.907210 -0.439128 -0.481799 5.127251 1.471662 -0.230186 2.277244 0.658726 -0.230186 2.277244 0.658726 -0.175073 1.707687 0.494837 3.006091 15.713264 -1.943180 6.318147 -6.830715 -4.725840 -0.092473 7.336485 7.419009 9.760069 -13.347201 74.844434 1.203018 1.102548 -1.438026 -2.570903 0.604278 1.743204 -2.624958 7.280643 -8.249584 -2.623800 -13.846087 -76.979483 -4.775804 0.364530 -1.741509 5.034226 -0.826191 -2.789212 5.760117 13.060687 2.869186 -2.904195 2.275558 -1.829042 4.257259 -7.947442 0.771101 0.000000 0.000000 0.000000 0.053907 12.436855 0.390747 -0.701524 6.930682 -0.293902 4.977045 -11.003764 -0.041208 -0.000000 0.000000 -0.000000
